# xmcd
#
# Track frame offsets:
#	150
#	10750
#	21837
#	37875
#	49225
#	58510
#	76825
#	89787
#	101225
#	116375
#	127162
#	140450
#	153050
#	165837
#	177350
#	187737
#	208875
#	220875
#	232750
#	247612
#
# Disc length: 3458 seconds
#
# Revision: 1
# Processed by: cddbd v1.5.1PL0 Copyright (c) Steve Scherf et al.
# Submitted via: EasyCDDAExtractor 7.0.6.1
#
DISCID=fa0d8014
DTITLE=Frankie's Laine - Frankie's Laine Greatest Hits D2
DYEAR=1900
DGENRE=Country
TTITLE0=Hey Good Lookin'
TTITLE1=You're Cheatin Heart
TTITLE2=Tumbling Tumbleweeds
TTITLE3=Jambalaya
TTITLE4=Rawhide
TTITLE5=Old Dogs Chilfren And Watermelon Wine
TTITLE6=Little Child The Little Boy And The Old Man
TTITLE7=North To Alaska
TTITLE8=Green Green Grass of Home
TTITLE9=Hey Joe
TTITLE10=Moonlight Gambler
TTITLE11=Gambella The Gambling Lady
TTITLE12=Luck Be A Lady
TTITLE13=Along The Navajo Trail
TTITLE14=Rovin' Gambler
TTITLE15=Sunday Morning Coming Down
TTITLE16=Answer Me Lord Above
TTITLE17=Blowing Wild The Ballard OfBlack Gold
TTITLE18=The Wafaring Stranger
TTITLE19=Hummingbird
EXTD=
EXTT0=
EXTT1=
EXTT2=
EXTT3=
EXTT4=
EXTT5=
EXTT6=
EXTT7=
EXTT8=
EXTT9=
EXTT10=
EXTT11=
EXTT12=
EXTT13=
EXTT14=
EXTT15=
EXTT16=
EXTT17=
EXTT18=
EXTT19=
PLAYORDER=
